<svg xmlns="http://www.w3.org/2000/svg" width="982" height="1010" viewBox="0 0 982 1010">
<title>Dependency graph</title>
<style>
	.background { fill: #ffffff; }
	.directory { stroke: #c5ccc9; stroke-width: 1; fill-opacity: 0.05; }
	.directory, .shade { fill: #000000; }
	.label-background { fill: #ffffff; }
	.file { fill: #ffffff; stroke: #9aa6a1; stroke-width: 1; }
	text { font-family: Helvetica, Arial, 'Liberation Sans', sans-serif; font-size: 12px; }
	.label { fill: #1b2220; text-anchor: middle; }
	.directory-label { fill: #66736d; font-weight: 600; }
	.edge { fill: none; stroke: #5f6b66; stroke-width: 1; stroke-opacity: 0.7; }
	.arrowhead { fill: #5f6b66; }
	svg { --outgoing: #d9480f; --incoming: #1971c2; }
	.background, .edge { pointer-events: none; }
	.node { cursor: default; }
	.node:hover .file { stroke-width: 2; }
	.arrowhead-dim { fill: #5f6b66; fill-opacity: 0.15; }
	.arrowhead-outgoing { fill: var(--outgoing); }
	.arrowhead-incoming { fill: var(--incoming); }
	@media (prefers-color-scheme: dark) {
		svg { --outgoing: #ff922b; --incoming: #4dabf7; }
		.arrowhead-dim { fill: #8b949e; }
		.background { fill: #0d1117; }
		.directory { stroke: #39424d; }
		.directory, .shade { fill: #ffffff; }
		.label-background { fill: #0d1117; }
		.file { fill: #0d1117; stroke: #5c6773; }
		.label { fill: #e6edf3; }
		.directory-label { fill: #8b949e; }
		.edge { stroke: #8b949e; }
		.arrowhead { fill: #8b949e; }
	}
	svg:has(.node:hover) .edge { stroke-opacity: 0.15; marker-end: url(#arrow-dim); }
	svg:has(.n37:hover) .inner-n37, svg:has(.n38:hover) .inner-n38, svg:has(.n39:hover) .inner-n39, svg:has(.n40:hover) .inner-n40, svg:has(.n41:hover) .inner-n41, svg:has(.n42:hover) .inner-n42, svg:has(.n44:hover) .inner-n44 { stroke-opacity: 0.7; marker-end: url(#arrow); }
	svg:has(.n0:hover) .from-n0, svg:has(.n38:hover) .out-n38, svg:has(.n1:hover) .from-n1, svg:has(.n2:hover) .from-n2, svg:has(.n8:hover) .from-n8, svg:has(.n9:hover) .from-n9, svg:has(.n10:hover) .from-n10, svg:has(.n13:hover) .from-n13, svg:has(.n14:hover) .from-n14, svg:has(.n15:hover) .from-n15, svg:has(.n41:hover) .out-n41, svg:has(.n17:hover) .from-n17, svg:has(.n18:hover) .from-n18, svg:has(.n19:hover) .from-n19, svg:has(.n20:hover) .from-n20, svg:has(.n21:hover) .from-n21, svg:has(.n22:hover) .from-n22, svg:has(.n23:hover) .from-n23, svg:has(.n42:hover) .out-n42, svg:has(.n24:hover) .from-n24, svg:has(.n43:hover) .out-n43, svg:has(.n26:hover) .from-n26, svg:has(.n27:hover) .from-n27, svg:has(.n28:hover) .from-n28, svg:has(.n30:hover) .from-n30, svg:has(.n31:hover) .from-n31, svg:has(.n32:hover) .from-n32, svg:has(.n44:hover) .out-n44, svg:has(.n33:hover) .from-n33, svg:has(.n35:hover) .from-n35 { stroke: var(--outgoing); stroke-opacity: 1; marker-end: url(#arrow-outgoing); }
	svg:has(.n39:hover) .to-n39, svg:has(.n39:hover) .in-n39, svg:has(.n7:hover) .to-n7, svg:has(.n2:hover) .to-n2, svg:has(.n4:hover) .to-n4, svg:has(.n3:hover) .to-n3, svg:has(.n5:hover) .to-n5, svg:has(.n6:hover) .to-n6, svg:has(.n0:hover) .to-n0, svg:has(.n38:hover) .to-n38, svg:has(.n38:hover) .in-n38, svg:has(.n40:hover) .to-n40, svg:has(.n40:hover) .in-n40, svg:has(.n13:hover) .to-n13, svg:has(.n41:hover) .in-n41, svg:has(.n42:hover) .to-n42, svg:has(.n42:hover) .in-n42, svg:has(.n11:hover) .to-n11, svg:has(.n12:hover) .to-n12, svg:has(.n14:hover) .to-n14, svg:has(.n20:hover) .to-n20, svg:has(.n21:hover) .to-n21, svg:has(.n15:hover) .to-n15, svg:has(.n16:hover) .to-n16, svg:has(.n17:hover) .to-n17, svg:has(.n19:hover) .to-n19, svg:has(.n18:hover) .to-n18, svg:has(.n23:hover) .to-n23, svg:has(.n27:hover) .to-n27, svg:has(.n28:hover) .to-n28, svg:has(.n29:hover) .to-n29, svg:has(.n24:hover) .to-n24, svg:has(.n43:hover) .in-n43, svg:has(.n25:hover) .to-n25, svg:has(.n26:hover) .to-n26, svg:has(.n32:hover) .to-n32, svg:has(.n44:hover) .in-n44, svg:has(.n33:hover) .to-n33, svg:has(.n35:hover) .to-n35, svg:has(.n34:hover) .to-n34 { stroke: var(--incoming); stroke-opacity: 1; marker-end: url(#arrow-incoming); }
	svg:has(.n0:hover) .n39 .file, svg:has(.n38:hover) .n39 .file, svg:has(.n0:hover) .n7 .file, svg:has(.n1:hover) .n2 .file, svg:has(.n1:hover) .n4 .file, svg:has(.n1:hover) .n3 .file, svg:has(.n1:hover) .n5 .file, svg:has(.n1:hover) .n6 .file, svg:has(.n2:hover) .n3 .file, svg:has(.n8:hover) .n0 .file, svg:has(.n8:hover) .n7 .file, svg:has(.n9:hover) .n38 .file, svg:has(.n9:hover) .n40 .file, svg:has(.n9:hover) .n13 .file, svg:has(.n9:hover) .n42 .file, svg:has(.n9:hover) .n39 .file, svg:has(.n10:hover) .n11 .file, svg:has(.n10:hover) .n12 .file, svg:has(.n13:hover) .n14 .file, svg:has(.n13:hover) .n20 .file, svg:has(.n13:hover) .n21 .file, svg:has(.n14:hover) .n15 .file, svg:has(.n14:hover) .n16 .file, svg:has(.n14:hover) .n17 .file, svg:has(.n14:hover) .n19 .file, svg:has(.n15:hover) .n39 .file, svg:has(.n41:hover) .n39 .file, svg:has(.n17:hover) .n39 .file, svg:has(.n17:hover) .n18 .file, svg:has(.n18:hover) .n39 .file, svg:has(.n19:hover) .n39 .file, svg:has(.n20:hover) .n16 .file, svg:has(.n20:hover) .n17 .file, svg:has(.n21:hover) .n17 .file, svg:has(.n22:hover) .n23 .file, svg:has(.n22:hover) .n27 .file, svg:has(.n22:hover) .n28 .file, svg:has(.n22:hover) .n29 .file, svg:has(.n23:hover) .n38 .file, svg:has(.n42:hover) .n38 .file, svg:has(.n23:hover) .n24 .file, svg:has(.n42:hover) .n24 .file, svg:has(.n23:hover) .n25 .file, svg:has(.n42:hover) .n25 .file, svg:has(.n23:hover) .n26 .file, svg:has(.n24:hover) .n18 .file, svg:has(.n43:hover) .n18 .file, svg:has(.n26:hover) .n39 .file, svg:has(.n42:hover) .n39 .file, svg:has(.n27:hover) .n38 .file, svg:has(.n27:hover) .n13 .file, svg:has(.n42:hover) .n13 .file, svg:has(.n28:hover) .n38 .file, svg:has(.n30:hover) .n39 .file, svg:has(.n31:hover) .n38 .file, svg:has(.n31:hover) .n40 .file, svg:has(.n31:hover) .n13 .file, svg:has(.n31:hover) .n42 .file, svg:has(.n31:hover) .n32 .file, svg:has(.n32:hover) .n24 .file, svg:has(.n44:hover) .n24 .file, svg:has(.n32:hover) .n33 .file, svg:has(.n32:hover) .n35 .file, svg:has(.n33:hover) .n34 .file, svg:has(.n35:hover) .n34 .file { stroke: var(--outgoing); }
	svg:has(.n39:hover) .n0 .file, svg:has(.n7:hover) .n0 .file, svg:has(.n2:hover) .n1 .file, svg:has(.n4:hover) .n1 .file, svg:has(.n3:hover) .n1 .file, svg:has(.n5:hover) .n1 .file, svg:has(.n6:hover) .n1 .file, svg:has(.n3:hover) .n2 .file, svg:has(.n0:hover) .n8 .file, svg:has(.n7:hover) .n8 .file, svg:has(.n38:hover) .n9 .file, svg:has(.n40:hover) .n9 .file, svg:has(.n13:hover) .n9 .file, svg:has(.n41:hover) .n9 .file, svg:has(.n42:hover) .n9 .file, svg:has(.n39:hover) .n9 .file, svg:has(.n11:hover) .n10 .file, svg:has(.n12:hover) .n10 .file, svg:has(.n14:hover) .n13 .file, svg:has(.n20:hover) .n13 .file, svg:has(.n21:hover) .n13 .file, svg:has(.n15:hover) .n14 .file, svg:has(.n16:hover) .n14 .file, svg:has(.n17:hover) .n14 .file, svg:has(.n19:hover) .n14 .file, svg:has(.n39:hover) .n15 .file, svg:has(.n39:hover) .n17 .file, svg:has(.n18:hover) .n17 .file, svg:has(.n39:hover) .n18 .file, svg:has(.n39:hover) .n19 .file, svg:has(.n16:hover) .n20 .file, svg:has(.n17:hover) .n20 .file, svg:has(.n17:hover) .n21 .file, svg:has(.n23:hover) .n22 .file, svg:has(.n27:hover) .n22 .file, svg:has(.n28:hover) .n22 .file, svg:has(.n29:hover) .n22 .file, svg:has(.n38:hover) .n23 .file, svg:has(.n24:hover) .n23 .file, svg:has(.n43:hover) .n23 .file, svg:has(.n25:hover) .n23 .file, svg:has(.n26:hover) .n23 .file, svg:has(.n18:hover) .n24 .file, svg:has(.n41:hover) .n24 .file, svg:has(.n39:hover) .n26 .file, svg:has(.n38:hover) .n27 .file, svg:has(.n13:hover) .n27 .file, svg:has(.n41:hover) .n27 .file, svg:has(.n38:hover) .n28 .file, svg:has(.n39:hover) .n30 .file, svg:has(.n38:hover) .n31 .file, svg:has(.n40:hover) .n31 .file, svg:has(.n13:hover) .n31 .file, svg:has(.n41:hover) .n31 .file, svg:has(.n42:hover) .n31 .file, svg:has(.n32:hover) .n31 .file, svg:has(.n44:hover) .n31 .file, svg:has(.n24:hover) .n32 .file, svg:has(.n43:hover) .n32 .file, svg:has(.n33:hover) .n32 .file, svg:has(.n35:hover) .n32 .file, svg:has(.n34:hover) .n33 .file, svg:has(.n34:hover) .n35 .file { stroke: var(--incoming); }
	svg:has(.n37:hover) .directory.n37, svg:has(.n38:hover) .directory.n38, svg:has(.n39:hover) .directory.n39, svg:has(.n40:hover) .directory.n40, svg:has(.n41:hover) .directory.n41, svg:has(.n42:hover) .directory.n42, svg:has(.n43:hover) .directory.n43, svg:has(.n44:hover) .directory.n44 { stroke-width: 2; }
</style>
<defs>
<marker id="arrow" viewBox="0 0 8 8" refX="8" refY="4" markerWidth="5" markerHeight="5" orient="auto"><path class="arrowhead" d="M0,0 L8,4 L0,8 z"/></marker>
<marker id="arrow-dim" viewBox="0 0 8 8" refX="8" refY="4" markerWidth="5" markerHeight="5" orient="auto"><path class="arrowhead-dim" d="M0,0 L8,4 L0,8 z"/></marker>
<marker id="arrow-outgoing" viewBox="0 0 8 8" refX="8" refY="4" markerWidth="5" markerHeight="5" orient="auto"><path class="arrowhead-outgoing" d="M0,0 L8,4 L0,8 z"/></marker>
<marker id="arrow-incoming" viewBox="0 0 8 8" refX="8" refY="4" markerWidth="5" markerHeight="5" orient="auto"><path class="arrowhead-incoming" d="M0,0 L8,4 L0,8 z"/></marker>
</defs>
<rect class="background" width="982" height="1010"/>
<rect class="directory node n37" x="12" y="12" width="958" height="986" rx="6"/>
<rect class="directory node n38" x="181" y="318" width="124.02" height="166" rx="6"/>
<g class="node n0">
<rect class="file" x="235" y="398" width="60.02" height="24" rx="4"/>
<text class="label" x="265.01" y="414" textLength="44.02" lengthAdjust="spacingAndGlyphs">async.ts</text>
</g>
<g class="node n7">
<rect class="file" x="191" y="450" width="75.35" height="24" rx="4"/>
<text class="label" x="228.68" y="466" textLength="59.35" lengthAdjust="spacingAndGlyphs">progress.ts</text>
</g>
<g class="node n8">
<rect class="file" x="200" y="346" width="57.35" height="24" rx="4"/>
<text class="label" x="228.68" y="362" textLength="41.35" lengthAdjust="spacingAndGlyphs">index.ts</text>
</g>
<rect class="directory node n39" x="360" y="822" width="319.35" height="166" rx="6"/>
<g class="node n1">
<rect class="file" x="521" y="850" width="57.35" height="24" rx="4"/>
<text class="label" x="549.68" y="866" textLength="41.35" lengthAdjust="spacingAndGlyphs">index.ts</text>
</g>
<g class="node n2">
<rect class="file" x="520" y="902" width="60.69" height="24" rx="4"/>
<text class="label" x="550.34" y="918" textLength="44.69" lengthAdjust="spacingAndGlyphs">cache.ts</text>
</g>
<g class="node n3">
<rect class="file" x="554" y="954" width="64.68" height="24" rx="4"/>
<text class="label" x="586.34" y="970" textLength="48.68" lengthAdjust="spacingAndGlyphs">folders.ts</text>
</g>
<g class="node n4">
<rect class="file" x="370" y="902" width="54.69" height="24" rx="4"/>
<text class="label" x="397.34" y="918" textLength="38.69" lengthAdjust="spacingAndGlyphs">fetch.ts</text>
</g>
<g class="node n5">
<rect class="file" x="441" y="902" width="62.68" height="24" rx="4"/>
<text class="label" x="472.34" y="918" textLength="46.68" lengthAdjust="spacingAndGlyphs">format.ts</text>
</g>
<g class="node n6">
<rect class="file" x="602" y="902" width="67.35" height="24" rx="4"/>
<text class="label" x="635.67" y="918" textLength="51.35" lengthAdjust="spacingAndGlyphs">parallel.ts</text>
</g>
<rect class="directory node n40" x="59" y="112" width="170.68" height="114" rx="6"/>
<g class="node n10">
<rect class="file" x="77" y="140" width="57.35" height="24" rx="4"/>
<text class="label" x="105.68" y="156" textLength="41.35" lengthAdjust="spacingAndGlyphs">index.ts</text>
</g>
<g class="node n11">
<rect class="file" x="69" y="192" width="63.35" height="24" rx="4"/>
<text class="label" x="100.68" y="208" textLength="47.35" lengthAdjust="spacingAndGlyphs">glyphs.ts</text>
</g>
<g class="node n12">
<rect class="file" x="149" y="192" width="70.68" height="24" rx="4"/>
<text class="label" x="184.34" y="208" textLength="54.68" lengthAdjust="spacingAndGlyphs">sources.ts</text>
</g>
<rect class="directory node n41" x="241" y="520" width="455" height="254" rx="6"/>
<g class="node n13">
<rect class="file" x="468" y="568" width="63.35" height="24" rx="4"/>
<text class="label" x="499.68" y="584" textLength="47.35" lengthAdjust="spacingAndGlyphs">filedbs.ts</text>
</g>
<g class="node n14">
<rect class="file" x="458" y="620" width="104.03" height="24" rx="4"/>
<text class="label" x="510.02" y="636" textLength="88.03" lengthAdjust="spacingAndGlyphs">filedb-external.ts</text>
</g>
<g class="node n15">
<rect class="file" x="468" y="688" width="67.35" height="24" rx="4"/>
<text class="label" x="501.67" y="704" textLength="51.35" lengthAdjust="spacingAndGlyphs">archive.ts</text>
</g>
<g class="node n16">
<rect class="file" x="366" y="688" width="85.37" height="24" rx="4"/>
<text class="label" x="408.69" y="704" textLength="69.37" lengthAdjust="spacingAndGlyphs">entry_path.ts</text>
</g>
<g class="node n17">
<rect class="file" x="292" y="688" width="57.35" height="24" rx="4"/>
<text class="label" x="320.68" y="704" textLength="41.35" lengthAdjust="spacingAndGlyphs">filedb.ts</text>
</g>
<g class="node n18">
<rect class="file" x="554" y="740" width="44.01" height="24" rx="4"/>
<text class="label" x="576" y="756" textLength="28.01" lengthAdjust="spacingAndGlyphs">file.ts</text>
</g>
<g class="node n19">
<rect class="file" x="552" y="688" width="113.37" height="24" rx="4"/>
<text class="label" x="608.68" y="704" textLength="97.37" lengthAdjust="spacingAndGlyphs">release_version.ts</text>
</g>
<g class="node n20">
<rect class="file" x="357" y="620" width="84.69" height="24" rx="4"/>
<text class="label" x="399.34" y="636" textLength="68.69" lengthAdjust="spacingAndGlyphs">filedb-npm.ts</text>
</g>
<g class="node n21">
<rect class="file" x="251" y="620" width="89.36" height="24" rx="4"/>
<text class="label" x="295.68" y="636" textLength="73.36" lengthAdjust="spacingAndGlyphs">filedb-static.ts</text>
</g>
<g class="node n36">
<rect class="file" x="548" y="568" width="103.37" height="24" rx="4"/>
<text class="label" x="599.69" y="584" textLength="87.37" lengthAdjust="spacingAndGlyphs">source_config.ts</text>
</g>
<rect class="directory node n42" x="251" y="112" width="503.01" height="166" rx="6"/>
<g class="node n22">
<rect class="file" x="404" y="140" width="57.35" height="24" rx="4"/>
<text class="label" x="432.68" y="156" textLength="41.35" lengthAdjust="spacingAndGlyphs">index.ts</text>
</g>
<g class="node n23">
<rect class="file" x="614" y="192" width="76.04" height="24" rx="4"/>
<text class="label" x="652.02" y="208" textLength="60.04" lengthAdjust="spacingAndGlyphs">generate.ts</text>
</g>
<g class="node n26">
<rect class="file" x="668" y="244" width="76.01" height="24" rx="4"/>
<text class="label" x="706.01" y="260" textLength="60.01" lengthAdjust="spacingAndGlyphs">overview.ts</text>
</g>
<g class="node n27">
<rect class="file" x="497" y="192" width="100.04" height="24" rx="4"/>
<text class="label" x="547.02" y="208" textLength="84.04" lengthAdjust="spacingAndGlyphs">load_sources.ts</text>
</g>
<g class="node n28">
<rect class="file" x="261" y="192" width="98.02" height="24" rx="4"/>
<text class="label" x="310.01" y="208" textLength="82.02" lengthAdjust="spacingAndGlyphs">precompress.ts</text>
</g>
<g class="node n29">
<rect class="file" x="376" y="192" width="104.04" height="24" rx="4"/>
<text class="label" x="428.02" y="208" textLength="88.04" lengthAdjust="spacingAndGlyphs">release_notes.ts</text>
</g>
<rect class="directory node n43" x="717" y="347" width="170.7" height="62" rx="6"/>
<g class="node n24">
<rect class="file" x="805" y="375" width="72.7" height="24" rx="4"/>
<text class="label" x="841.35" y="391" textLength="56.7" lengthAdjust="spacingAndGlyphs">frontend.ts</text>
</g>
<g class="node n25">
<rect class="file" x="727" y="375" width="61.35" height="24" rx="4"/>
<text class="label" x="757.67" y="391" textLength="45.35" lengthAdjust="spacingAndGlyphs">tarball.ts</text>
</g>
<rect class="directory node n44" x="771" y="112" width="178" height="166" rx="6"/>
<g class="node n32">
<rect class="file" x="865" y="140" width="58.01" height="24" rx="4"/>
<text class="label" x="894.01" y="156" textLength="42.01" lengthAdjust="spacingAndGlyphs">serve.ts</text>
</g>
<g class="node n33">
<rect class="file" x="860" y="192" width="67.36" height="24" rx="4"/>
<text class="label" x="893.68" y="208" textLength="51.36" lengthAdjust="spacingAndGlyphs">landing.ts</text>
</g>
<g class="node n34">
<rect class="file" x="861" y="244" width="56.68" height="24" rx="4"/>
<text class="label" x="889.34" y="260" textLength="40.68" lengthAdjust="spacingAndGlyphs">listen.ts</text>
</g>
<g class="node n35">
<rect class="file" x="781" y="192" width="62.01" height="24" rx="4"/>
<text class="label" x="812" y="208" textLength="46.01" lengthAdjust="spacingAndGlyphs">server.ts</text>
</g>
<g class="node n9">
<rect class="file" x="22" y="40" width="54.02" height="24" rx="4"/>
<text class="label" x="49.01" y="56" textLength="38.02" lengthAdjust="spacingAndGlyphs">build.ts</text>
</g>
<g class="node n30">
<rect class="file" x="717" y="750" width="93.36" height="24" rx="4"/>
<text class="label" x="763.68" y="766" textLength="77.36" lengthAdjust="spacingAndGlyphs">clean-cache.ts</text>
</g>
<g class="node n31">
<rect class="file" x="390" y="40" width="48.02" height="24" rx="4"/>
<text class="label" x="414.01" y="56" textLength="32.02" lengthAdjust="spacingAndGlyphs">dev.ts</text>
</g>
<path class="edge from-n0 to-n39 inner-n37 out-n38 in-n39" d="M270,422 L270,432 L277,432 L277,498 L230,498 L230,796 L431,796 L431,822" marker-end="url(#arrow)"/>
<path class="edge from-n0 to-n7 inner-n37 inner-n38" d="M260,422 L260,432 L234,432 L234,450" marker-end="url(#arrow)"/>
<path class="edge from-n1 to-n2 inner-n37 inner-n39" d="M550,874 L550,902" marker-end="url(#arrow)"/>
<path class="edge from-n1 to-n4 inner-n37 inner-n39" d="M530,874 L530,884 L397,884 L397,902" marker-end="url(#arrow)"/>
<path class="edge from-n1 to-n3 inner-n37 inner-n39" d="M560,874 L560,892 L591,892 L591,954" marker-end="url(#arrow)"/>
<path class="edge from-n1 to-n5 inner-n37 inner-n39" d="M540,874 L540,892 L472,892 L472,902" marker-end="url(#arrow)"/>
<path class="edge from-n1 to-n6 inner-n37 inner-n39" d="M570,874 L570,884 L636,884 L636,902" marker-end="url(#arrow)"/>
<path class="edge from-n2 to-n3 inner-n37 inner-n39" d="M550,926 L550,936 L581,936 L581,954" marker-end="url(#arrow)"/>
<path class="edge from-n8 to-n0 inner-n37 inner-n38" d="M234,370 L234,380 L265,380 L265,398" marker-end="url(#arrow)"/>
<path class="edge from-n8 to-n7 inner-n37 inner-n38" d="M224,370 L224,450" marker-end="url(#arrow)"/>
<path class="edge from-n9 to-n38 inner-n37 in-n38" d="M39,64 L39,292 L200,292 L200,318" marker-end="url(#arrow)"/>
<path class="edge from-n9 to-n40 inner-n37 in-n40" d="M59,64 L59,98 L116,98 L116,112" marker-end="url(#arrow)"/>
<path class="edge from-n9 to-n13 inner-n37 in-n41" d="M49,64 L49,74 L48,74 L48,506 L490,506 L490,568" marker-end="url(#arrow)"/>
<path class="edge from-n9 to-n42 inner-n37 in-n42" d="M69,64 L69,90 L404,90 L404,112" marker-end="url(#arrow)"/>
<path class="edge from-n9 to-n39 inner-n37 in-n39" d="M29,64 L29,74 L30,74 L30,804 L395,804 L395,822" marker-end="url(#arrow)"/>
<path class="edge from-n10 to-n11 inner-n37 inner-n40" d="M101,164 L101,192" marker-end="url(#arrow)"/>
<path class="edge from-n10 to-n12 inner-n37 inner-n40" d="M111,164 L111,174 L184,174 L184,192" marker-end="url(#arrow)"/>
<path class="edge from-n13 to-n14 inner-n37 inner-n41" d="M510,592 L510,620" marker-end="url(#arrow)"/>
<path class="edge from-n13 to-n20 inner-n37 inner-n41" d="M500,592 L500,610 L399,610 L399,620" marker-end="url(#arrow)"/>
<path class="edge from-n13 to-n21 inner-n37 inner-n41" d="M490,592 L490,602 L296,602 L296,620" marker-end="url(#arrow)"/>
<path class="edge from-n14 to-n15 inner-n37 inner-n41" d="M515,644 L515,678 L502,678 L502,688" marker-end="url(#arrow)"/>
<path class="edge from-n14 to-n16 inner-n37 inner-n41" d="M505,644 L505,670 L414,670 L414,688" marker-end="url(#arrow)"/>
<path class="edge from-n14 to-n17 inner-n37 inner-n41" d="M495,644 L495,662 L331,662 L331,688" marker-end="url(#arrow)"/>
<path class="edge from-n14 to-n19 inner-n37 inner-n41" d="M525,644 L525,654 L609,654 L609,688" marker-end="url(#arrow)"/>
<path class="edge from-n15 to-n39 inner-n37 in-n39 out-n41" d="M502,712 L502,822" marker-end="url(#arrow)"/>
<path class="edge from-n17 to-n39 inner-n37 in-n39 out-n41" d="M316,712 L316,788 L466,788 L466,822" marker-end="url(#arrow)"/>
<path class="edge from-n17 to-n18 inner-n37 inner-n41" d="M326,712 L326,722 L571,722 L571,740" marker-end="url(#arrow)"/>
<path class="edge from-n18 to-n39 inner-n37 in-n39 out-n41" d="M576,764 L576,788 L537,788 L537,822" marker-end="url(#arrow)"/>
<path class="edge from-n19 to-n39 inner-n37 in-n39 out-n41" d="M609,712 L609,796 L573,796 L573,822" marker-end="url(#arrow)"/>
<path class="edge from-n20 to-n16 inner-n37 inner-n41" d="M404,644 L404,688" marker-end="url(#arrow)"/>
<path class="edge from-n20 to-n17 inner-n37 inner-n41" d="M394,644 L394,654 L321,654 L321,688" marker-end="url(#arrow)"/>
<path class="edge from-n21 to-n17 inner-n37 inner-n41" d="M296,644 L296,654 L311,654 L311,688" marker-end="url(#arrow)"/>
<path class="edge from-n22 to-n23 inner-n37 inner-n42" d="M448,164 L448,174 L652,174 L652,192" marker-end="url(#arrow)"/>
<path class="edge from-n22 to-n27 inner-n37 inner-n42" d="M438,164 L438,182 L547,182 L547,192" marker-end="url(#arrow)"/>
<path class="edge from-n22 to-n28 inner-n37 inner-n42" d="M418,164 L418,174 L310,174 L310,192" marker-end="url(#arrow)"/>
<path class="edge from-n22 to-n29 inner-n37 inner-n42" d="M428,164 L428,192" marker-end="url(#arrow)"/>
<path class="edge from-n23 to-n38 inner-n37 in-n38 out-n42" d="M637,216 L637,300 L210,300 L210,318" marker-end="url(#arrow)"/>
<path class="edge from-n23 to-n24 inner-n37 out-n42 in-n43" d="M657,216 L657,292 L836,292 L836,375" marker-end="url(#arrow)"/>
<path class="edge from-n23 to-n25 inner-n37 out-n42 in-n43" d="M647,216 L647,300 L758,300 L758,375" marker-end="url(#arrow)"/>
<path class="edge from-n23 to-n26 inner-n37 inner-n42" d="M667,216 L667,226 L706,226 L706,244" marker-end="url(#arrow)"/>
<path class="edge from-n24 to-n18 inner-n37 in-n41 out-n43" d="M841,399 L841,498 L676,498 L676,722 L581,722 L581,740" marker-end="url(#arrow)"/>
<path class="edge from-n26 to-n39 inner-n37 in-n39 out-n42" d="M706,268 L706,804 L608,804 L608,822" marker-end="url(#arrow)"/>
<path class="edge from-n27 to-n38 inner-n37 in-n38 out-n42" d="M542,216 L542,292 L220,292 L220,318" marker-end="url(#arrow)"/>
<path class="edge from-n27 to-n13 inner-n37 in-n41 out-n42" d="M552,216 L552,308 L500,308 L500,568" marker-end="url(#arrow)"/>
<path class="edge from-n28 to-n38 inner-n37 in-n38 out-n42" d="M310,216 L310,308 L230,308 L230,318" marker-end="url(#arrow)"/>
<path class="edge from-n30 to-n39 inner-n37 in-n39" d="M764,774 L764,812 L644,812 L644,822" marker-end="url(#arrow)"/>
<path class="edge from-n31 to-n38 inner-n37 in-n38" d="M404,64 L404,82 L240,82 L240,318" marker-end="url(#arrow)"/>
<path class="edge from-n31 to-n40 inner-n37 in-n40" d="M394,64 L394,74 L173,74 L173,112" marker-end="url(#arrow)"/>
<path class="edge from-n31 to-n13 inner-n37 in-n41" d="M434,64 L434,74 L959,74 L959,506 L686,506 L686,558 L510,558 L510,568" marker-end="url(#arrow)"/>
<path class="edge from-n31 to-n42 inner-n37 in-n42" d="M414,64 L414,112" marker-end="url(#arrow)"/>
<path class="edge from-n31 to-n32 inner-n37 in-n44" d="M424,64 L424,82 L894,82 L894,140" marker-end="url(#arrow)"/>
<path class="edge from-n32 to-n24 inner-n37 in-n43 out-n44" d="M904,164 L904,174 L938,174 L938,292 L846,292 L846,375" marker-end="url(#arrow)"/>
<path class="edge from-n32 to-n33 inner-n37 inner-n44" d="M894,164 L894,192" marker-end="url(#arrow)"/>
<path class="edge from-n32 to-n35 inner-n37 inner-n44" d="M884,164 L884,174 L812,174 L812,192" marker-end="url(#arrow)"/>
<path class="edge from-n33 to-n34 inner-n37 inner-n44" d="M894,216 L894,244" marker-end="url(#arrow)"/>
<path class="edge from-n35 to-n34 inner-n37 inner-n44" d="M812,216 L812,226 L884,226 L884,244" marker-end="url(#arrow)"/>
<g class="node n37">
<rect class="label-background" x="19" y="16" width="24.01" height="16" rx="2"/>
<rect class="shade" x="19" y="16" width="24.01" height="16" rx="2" fill-opacity="0.05"/>
<text class="directory-label" x="22" y="28" textLength="18.01" lengthAdjust="spacingAndGlyphs">src</text>
</g>
<g class="node n38">
<rect class="label-background" x="188" y="322" width="98.04" height="16" rx="2"/>
<rect class="shade" x="188" y="322" width="98.04" height="16" rx="2" fill-opacity="0.0975"/>
<text class="directory-label" x="191" y="334" textLength="92.04" lengthAdjust="spacingAndGlyphs">async_progress</text>
</g>
<g class="node n39">
<rect class="label-background" x="367" y="826" width="30.67" height="16" rx="2"/>
<rect class="shade" x="367" y="826" width="30.67" height="16" rx="2" fill-opacity="0.0975"/>
<text class="directory-label" x="370" y="838" textLength="24.67" lengthAdjust="spacingAndGlyphs">utils</text>
</g>
<g class="node n40">
<rect class="label-background" x="66" y="116" width="42" height="16" rx="2"/>
<rect class="shade" x="66" y="116" width="42" height="16" rx="2" fill-opacity="0.0975"/>
<text class="directory-label" x="69" y="128" textLength="36" lengthAdjust="spacingAndGlyphs">config</text>
</g>
<g class="node n41">
<rect class="label-background" x="248" y="524" width="30.01" height="16" rx="2"/>
<rect class="shade" x="248" y="524" width="30.01" height="16" rx="2" fill-opacity="0.0975"/>
<text class="directory-label" x="251" y="536" textLength="24.01" lengthAdjust="spacingAndGlyphs">files</text>
</g>
<g class="node n42">
<rect class="label-background" x="258" y="116" width="51.35" height="16" rx="2"/>
<rect class="shade" x="258" y="116" width="51.35" height="16" rx="2" fill-opacity="0.0975"/>
<text class="directory-label" x="261" y="128" textLength="45.35" lengthAdjust="spacingAndGlyphs">pipeline</text>
</g>
<g class="node n43">
<rect class="label-background" x="724" y="351" width="54.66" height="16" rx="2"/>
<rect class="shade" x="724" y="351" width="54.66" height="16" rx="2" fill-opacity="0.0975"/>
<text class="directory-label" x="727" y="363" textLength="48.66" lengthAdjust="spacingAndGlyphs">frontend</text>
</g>
<g class="node n44">
<rect class="label-background" x="778" y="116" width="42.02" height="16" rx="2"/>
<rect class="shade" x="778" y="116" width="42.02" height="16" rx="2" fill-opacity="0.0975"/>
<text class="directory-label" x="781" y="128" textLength="36.02" lengthAdjust="spacingAndGlyphs">server</text>
</g>
</svg>
